<?xml version="1.0" encoding="UTF-8" standalone="no"?>
<!-- Created with Inkscape (http://www.inkscape.org/) -->

<svg
   version="1.1"
   id="svg2"
   xml:space="preserve"
   width="1066.6667"
   height="1066.6667"
   viewBox="0 0 1066.6667 1066.6667"
   xmlns="http://www.w3.org/2000/svg"
   xmlns:svg="http://www.w3.org/2000/svg"><defs
     id="defs6"><clipPath
       clipPathUnits="userSpaceOnUse"
       id="clipPath16"><path
         d="m 496.442,288.64 c 0,-70.126 56.847,-126.974 126.973,-126.974 v 0 c 70.126,0 126.973,56.848 126.973,126.974 v 0 c 0,70.125 -56.847,126.973 -126.973,126.973 v 0 c -70.126,0 -126.973,-56.848 -126.973,-126.973"
         id="path14" /></clipPath><radialGradient
       fx="0"
       fy="0"
       cx="0"
       cy="0"
       r="1"
       gradientUnits="userSpaceOnUse"
       gradientTransform="matrix(126.97356,0,0,-126.97356,623.41504,288.63959)"
       spreadMethod="pad"
       id="radialGradient30"><stop
         style="stop-opacity:1;stop-color:#344973"
         offset="0"
         id="stop22" /><stop
         style="stop-opacity:1;stop-color:#344973"
         offset="0.00000001"
         id="stop24" /><stop
         style="stop-opacity:1;stop-color:#344973"
         offset="0.38074361"
         id="stop26" /><stop
         style="stop-opacity:1;stop-color:#0e3659"
         offset="1"
         id="stop28" /></radialGradient><clipPath
       clipPathUnits="userSpaceOnUse"
       id="clipPath40"><path
         d="m 664.576,461.218 c -2.857,-4.338 -4.55,-15.978 -5.185,-18.412 v 0 c -7.513,-25.923 -19.681,-49.836 -6.878,-86.553 v 0 c 0.318,-1.058 0.741,-2.116 1.164,-3.28 v 0 c 1.588,-4.127 4.338,-10.369 8.571,-15.766 v 0 c 3.174,-3.28 6.878,-6.243 11.004,-8.783 v 0 c 0.105,-0.105 0.105,-0.105 0.212,-0.105 v 0 c 0.317,-0.211 0.634,-0.423 0.952,-0.635 v 0 c 11.957,-6.983 21.056,-7.83 31.003,-8.359 v 0 c 9.735,-0.424 18.517,0.846 25.924,3.915 v 0 c 12.168,4.973 24.124,9.946 35.975,15.131 v 0 c 11.216,4.974 24.02,15.237 29.945,20.21 v 0 c 1.482,1.375 0.635,4.021 -1.693,5.079 v 0 c -6.031,2.645 -19.681,4.232 -22.644,4.867 v 0 c -20.104,4.445 -40.208,10.581 -61.158,11.428 v 0 c -0.636,2.01 -1.27,4.021 -2.116,5.925 v 0 c -5.503,13.015 -11.217,26.03 -17.036,39.044 v 0 c -5.397,12.275 -16.824,28.252 -22.433,35.659 v 0 c -0.835,1.134 -2.141,1.729 -3.33,1.729 v 0 c -0.92,0 -1.769,-0.356 -2.277,-1.094"
         id="path38" /></clipPath><radialGradient
       fx="0"
       fy="0"
       cx="0"
       cy="0"
       r="1"
       gradientUnits="userSpaceOnUse"
       gradientTransform="matrix(41.995163,60.398624,60.398624,-41.995163,682.65027,333.90692)"
       spreadMethod="pad"
       id="radialGradient54"><stop
         style="stop-opacity:1;stop-color:#267302"
         offset="0"
         id="stop46" /><stop
         style="stop-opacity:1;stop-color:#267302"
         offset="0.00000007"
         id="stop48" /><stop
         style="stop-opacity:1;stop-color:#55a603"
         offset="1"
         id="stop50" /><stop
         style="stop-opacity:1;stop-color:#55a603"
         offset="1"
         id="stop52" /></radialGradient><clipPath
       clipPathUnits="userSpaceOnUse"
       id="clipPath64"><path
         d="m 52.034,288.64 c 0,-70.126 56.848,-126.974 126.973,-126.974 v 0 c 70.126,0 126.974,56.848 126.974,126.974 v 0 c 0,70.125 -56.848,126.973 -126.974,126.973 v 0 c -70.125,0 -126.973,-56.848 -126.973,-126.973"
         id="path62" /></clipPath><radialGradient
       fx="0"
       fy="0"
       cx="0"
       cy="0"
       r="1"
       gradientUnits="userSpaceOnUse"
       gradientTransform="matrix(126.97356,0,0,-126.97356,179.0076,288.63959)"
       spreadMethod="pad"
       id="radialGradient78"><stop
         style="stop-opacity:1;stop-color:#344973"
         offset="0"
         id="stop70" /><stop
         style="stop-opacity:1;stop-color:#344973"
         offset="0.00000001"
         id="stop72" /><stop
         style="stop-opacity:1;stop-color:#344973"
         offset="0.38074361"
         id="stop74" /><stop
         style="stop-opacity:1;stop-color:#0e3659"
         offset="1"
         id="stop76" /></radialGradient><clipPath
       clipPathUnits="userSpaceOnUse"
       id="clipPath88"><path
         d="m 130.864,460.583 c -5.608,-7.407 -17.036,-23.384 -22.432,-35.659 v 0 C 102.612,411.91 96.898,398.895 91.396,385.88 v 0 c -0.846,-1.904 -1.481,-3.915 -2.116,-5.925 v 0 C 68.329,379.108 48.225,372.972 28.12,368.527 v 0 C 25.159,367.892 11.508,366.305 5.477,363.66 v 0 c -2.328,-1.058 -3.28,-3.704 -1.692,-5.079 v 0 c 5.924,-4.973 18.622,-15.236 29.838,-20.21 v 0 C 45.58,333.186 57.536,328.213 69.704,323.24 v 0 c 7.407,-3.069 16.19,-4.339 25.925,-3.915 v 0 c 9.839,0.529 19.045,1.376 31.002,8.359 v 0 c 0.529,0.317 0.952,0.635 1.481,0.953 v 0 c 3.492,2.116 6.667,4.655 9.523,7.301 v 0 c 0.212,0.211 0.424,0.423 0.529,0.634 v 0 c 4.656,5.502 7.513,12.063 9.1,16.401 v 0 c 0.423,1.164 0.847,2.327 1.27,3.492 v 0 c 12.804,36.61 0.635,60.524 -6.878,86.341 v 0 c -0.635,2.434 -2.433,14.074 -5.291,18.412 v 0 c -0.461,0.738 -1.284,1.094 -2.189,1.094 v 0 c -1.171,0 -2.477,-0.595 -3.312,-1.729"
         id="path86" /></clipPath><radialGradient
       fx="0"
       fy="0"
       cx="0"
       cy="0"
       r="1"
       gradientUnits="userSpaceOnUse"
       gradientTransform="matrix(-41.418873,60.809891,60.809891,41.418873,123.11263,343.38559)"
       spreadMethod="pad"
       id="radialGradient102"><stop
         style="stop-opacity:1;stop-color:#267302"
         offset="0"
         id="stop94" /><stop
         style="stop-opacity:1;stop-color:#267302"
         offset="0.00000007"
         id="stop96" /><stop
         style="stop-opacity:1;stop-color:#267302"
         offset="0.10666435"
         id="stop98" /><stop
         style="stop-opacity:1;stop-color:#55a603"
         offset="1"
         id="stop100" /></radialGradient><clipPath
       clipPathUnits="userSpaceOnUse"
       id="clipPath112"><path
         d="m 318.73,679.819 c 0.711,-7.704 2.51,-23.931 6.978,-35.357 v 0 c 4.847,-12.098 9.842,-24.046 14.988,-36.141 v 0 c 3.103,-7.393 8.449,-14.476 15.663,-21.025 v 0 c 7.363,-6.549 14.499,-12.426 27.909,-15.879 v 0 c 0.6,-0.146 1.124,-0.219 1.723,-0.365 v 0 c 3.97,-0.954 8.013,-1.384 11.904,-1.515 v 0 c 0.298,0.002 0.598,0.004 0.823,0.079 v 0 c 7.179,0.633 13.826,3.284 18.006,5.249 v 0 c 1.12,0.529 2.24,1.058 3.359,1.588 v 0 c 34.861,17.001 43.043,42.553 55.874,66.184 v 0 c 1.262,2.175 8.175,11.711 9.197,16.804 v 0 c 0.44,1.947 -1.888,3.806 -4.355,3.421 v 0 c -9.197,-1.316 -28.56,-4.626 -41.031,-9.549 v 0 c -13.294,-5.152 -26.512,-10.377 -39.58,-15.752 v 0 c -1.942,-0.758 -3.807,-1.74 -5.673,-2.722 v 0 c -15.482,14.143 -34.083,23.93 -51.494,34.92 v 0 c -2.552,1.634 -13.367,10.112 -19.513,12.477 v 0 c -0.543,0.2 -1.093,0.293 -1.617,0.293 v 0 c -1.792,0 -3.284,-1.09 -3.161,-2.71"
         id="path110" /></clipPath><radialGradient
       fx="0"
       fy="0"
       cx="0"
       cy="0"
       r="1"
       gradientUnits="userSpaceOnUse"
       gradientTransform="matrix(-0.1689354,71.13739,71.13739,0.1689354,399.12195,601.38898)"
       spreadMethod="pad"
       id="radialGradient128"><stop
         style="stop-opacity:1;stop-color:#267302"
         offset="0"
         id="stop118" /><stop
         style="stop-opacity:1;stop-color:#267302"
         offset="0.00000007"
         id="stop120" /><stop
         style="stop-opacity:1;stop-color:#267302"
         offset="0.02555965"
         id="stop122" /><stop
         style="stop-opacity:1;stop-color:#55a603"
         offset="1"
         id="stop124" /><stop
         style="stop-opacity:1;stop-color:#55a603"
         offset="1"
         id="stop126" /></radialGradient><clipPath
       clipPathUnits="userSpaceOnUse"
       id="clipPath138"><path
         d="m 163.136,378.58 c 0,-128.564 104.222,-232.785 232.785,-232.785 v 0 c 128.563,0 232.785,104.221 232.785,232.785 v 0 c 0,128.563 -104.222,232.784 -232.785,232.784 v 0 c -128.563,0 -232.785,-104.221 -232.785,-232.784"
         id="path136" /></clipPath><radialGradient
       fx="0"
       fy="0"
       cx="0"
       cy="0"
       r="1"
       gradientUnits="userSpaceOnUse"
       gradientTransform="matrix(232.78487,0,0,-232.78487,395.92078,378.57919)"
       spreadMethod="pad"
       id="radialGradient152"><stop
         style="stop-opacity:1;stop-color:#344973"
         offset="0"
         id="stop144" /><stop
         style="stop-opacity:1;stop-color:#344973"
         offset="0.00000001"
         id="stop146" /><stop
         style="stop-opacity:1;stop-color:#344973"
         offset="0.38074361"
         id="stop148" /><stop
         style="stop-opacity:1;stop-color:#0e3659"
         offset="1"
         id="stop150" /></radialGradient></defs><g
     id="g8"
     transform="matrix(1.3333333,0,0,-1.3333333,0,1066.6667)"><g
       id="g10"><g
         id="g12"
         clip-path="url(#clipPath16)"><g
           id="g18"><g
             id="g20"><path
               d="m 496.442,288.64 c 0,-70.126 56.847,-126.974 126.973,-126.974 v 0 c 70.126,0 126.973,56.848 126.973,126.974 v 0 c 0,70.125 -56.847,126.973 -126.973,126.973 v 0 c -70.126,0 -126.973,-56.848 -126.973,-126.973"
               style="fill:url(#radialGradient30);stroke:none"
               id="path32" /></g></g></g></g><g
       id="g34"><g
         id="g36"
         clip-path="url(#clipPath40)"><g
           id="g42"><g
             id="g44"><path
               d="m 664.576,461.218 c -2.857,-4.338 -4.55,-15.978 -5.185,-18.412 v 0 c -7.513,-25.923 -19.681,-49.836 -6.878,-86.553 v 0 c 0.318,-1.058 0.741,-2.116 1.164,-3.28 v 0 c 1.588,-4.127 4.338,-10.369 8.571,-15.766 v 0 c 3.174,-3.28 6.878,-6.243 11.004,-8.783 v 0 c 0.105,-0.105 0.105,-0.105 0.212,-0.105 v 0 c 0.317,-0.211 0.634,-0.423 0.952,-0.635 v 0 c 11.957,-6.983 21.056,-7.83 31.003,-8.359 v 0 c 9.735,-0.424 18.517,0.846 25.924,3.915 v 0 c 12.168,4.973 24.124,9.946 35.975,15.131 v 0 c 11.216,4.974 24.02,15.237 29.945,20.21 v 0 c 1.482,1.375 0.635,4.021 -1.693,5.079 v 0 c -6.031,2.645 -19.681,4.232 -22.644,4.867 v 0 c -20.104,4.445 -40.208,10.581 -61.158,11.428 v 0 c -0.636,2.01 -1.27,4.021 -2.116,5.925 v 0 c -5.503,13.015 -11.217,26.03 -17.036,39.044 v 0 c -5.397,12.275 -16.824,28.252 -22.433,35.659 v 0 c -0.835,1.134 -2.141,1.729 -3.33,1.729 v 0 c -0.92,0 -1.769,-0.356 -2.277,-1.094"
               style="fill:url(#radialGradient54);stroke:none"
               id="path56" /></g></g></g></g><g
       id="g58"><g
         id="g60"
         clip-path="url(#clipPath64)"><g
           id="g66"><g
             id="g68"><path
               d="m 52.034,288.64 c 0,-70.126 56.848,-126.974 126.973,-126.974 v 0 c 70.126,0 126.974,56.848 126.974,126.974 v 0 c 0,70.125 -56.848,126.973 -126.974,126.973 v 0 c -70.125,0 -126.973,-56.848 -126.973,-126.973"
               style="fill:url(#radialGradient78);stroke:none"
               id="path80" /></g></g></g></g><g
       id="g82"><g
         id="g84"
         clip-path="url(#clipPath88)"><g
           id="g90"><g
             id="g92"><path
               d="m 130.864,460.583 c -5.608,-7.407 -17.036,-23.384 -22.432,-35.659 v 0 C 102.612,411.91 96.898,398.895 91.396,385.88 v 0 c -0.846,-1.904 -1.481,-3.915 -2.116,-5.925 v 0 C 68.329,379.108 48.225,372.972 28.12,368.527 v 0 C 25.159,367.892 11.508,366.305 5.477,363.66 v 0 c -2.328,-1.058 -3.28,-3.704 -1.692,-5.079 v 0 c 5.924,-4.973 18.622,-15.236 29.838,-20.21 v 0 C 45.58,333.186 57.536,328.213 69.704,323.24 v 0 c 7.407,-3.069 16.19,-4.339 25.925,-3.915 v 0 c 9.839,0.529 19.045,1.376 31.002,8.359 v 0 c 0.529,0.317 0.952,0.635 1.481,0.953 v 0 c 3.492,2.116 6.667,4.655 9.523,7.301 v 0 c 0.212,0.211 0.424,0.423 0.529,0.634 v 0 c 4.656,5.502 7.513,12.063 9.1,16.401 v 0 c 0.423,1.164 0.847,2.327 1.27,3.492 v 0 c 12.804,36.61 0.635,60.524 -6.878,86.341 v 0 c -0.635,2.434 -2.433,14.074 -5.291,18.412 v 0 c -0.461,0.738 -1.284,1.094 -2.189,1.094 v 0 c -1.171,0 -2.477,-0.595 -3.312,-1.729"
               style="fill:url(#radialGradient102);stroke:none"
               id="path104" /></g></g></g></g><g
       id="g106"><g
         id="g108"
         clip-path="url(#clipPath112)"><g
           id="g114"><g
             id="g116"><path
               d="m 318.73,679.819 c 0.711,-7.704 2.51,-23.931 6.978,-35.357 v 0 c 4.847,-12.098 9.842,-24.046 14.988,-36.141 v 0 c 3.103,-7.393 8.449,-14.476 15.663,-21.025 v 0 c 7.363,-6.549 14.499,-12.426 27.909,-15.879 v 0 c 0.6,-0.146 1.124,-0.219 1.723,-0.365 v 0 c 3.97,-0.954 8.013,-1.384 11.904,-1.515 v 0 c 0.298,0.002 0.598,0.004 0.823,0.079 v 0 c 7.179,0.633 13.826,3.284 18.006,5.249 v 0 c 1.12,0.529 2.24,1.058 3.359,1.588 v 0 c 34.861,17.001 43.043,42.553 55.874,66.184 v 0 c 1.262,2.175 8.175,11.711 9.197,16.804 v 0 c 0.44,1.947 -1.888,3.806 -4.355,3.421 v 0 c -9.197,-1.316 -28.56,-4.626 -41.031,-9.549 v 0 c -13.294,-5.152 -26.512,-10.377 -39.58,-15.752 v 0 c -1.942,-0.758 -3.807,-1.74 -5.673,-2.722 v 0 c -15.482,14.143 -34.083,23.93 -51.494,34.92 v 0 c -2.552,1.634 -13.367,10.112 -19.513,12.477 v 0 c -0.543,0.2 -1.093,0.293 -1.617,0.293 v 0 c -1.792,0 -3.284,-1.09 -3.161,-2.71"
               style="fill:url(#radialGradient128);stroke:none"
               id="path130" /></g></g></g></g><g
       id="g132"><g
         id="g134"
         clip-path="url(#clipPath138)"><g
           id="g140"><g
             id="g142"><path
               d="m 163.136,378.58 c 0,-128.564 104.222,-232.785 232.785,-232.785 v 0 c 128.563,0 232.785,104.221 232.785,232.785 v 0 c 0,128.563 -104.222,232.784 -232.785,232.784 v 0 c -128.563,0 -232.785,-104.221 -232.785,-232.784"
               style="fill:url(#radialGradient152);stroke:none"
               id="path154" /></g></g></g></g><text
       transform="matrix(1,0,0,-1,205.2744,394.9102)"
       style="font-variant:normal;font-weight:bold;font-stretch:normal;font-size:78.1992px;font-family:Usual;-inkscape-font-specification:Usual-Bold;writing-mode:lr-tb;fill:#ffffff;fill-opacity:1;fill-rule:nonzero;stroke:none"
       id="text160"><tspan
         x="0 56.303425 78.824791 127.93389 174.30602 225.1355 271.50763 304.58588 338.28973 381.29929"
         y="0"
         id="tspan156">Blueberry </tspan><tspan
         x="12.66827 68.971695 91.493065 112.99784 164.84392 211.21603 244.91989 289.25885 335.63098"
         y="93.839043"
         id="tspan158">Pi Server</tspan></text></g></svg>
