<svg id="Blueberry" xmlns="http://www.w3.org/2000/svg" xmlns:xlink="http://www.w3.org/1999/xlink" viewBox="0 0 795 536.74"><defs><style>.cls-1{fill:url(#Blueberry_Gradient);}.cls-2{fill:url(#radial-gradient);}.cls-3{fill:url(#radial-gradient-2);}.cls-4{fill:url(#radial-gradient-3);}.cls-5{fill:url(#radial-gradient-4);}.cls-6{fill:url(#Blueberry_Gradient-2);}.cls-7{fill:#fff;}</style><radialGradient id="Blueberry_Gradient" cx="620.42" cy="393.89" r="126.97" gradientUnits="userSpaceOnUse"><stop offset="0" stop-color="#344973"/><stop offset="0.31" stop-color="#2e466f"/><stop offset="0.71" stop-color="#1e3e64"/><stop offset="1" stop-color="#0e3659"/></radialGradient><radialGradient id="radial-gradient" cx="682.65" cy="466.09" r="73.56" gradientUnits="userSpaceOnUse"><stop offset="0" stop-color="#267302"/><stop offset="1" stop-color="#55a603"/></radialGradient><radialGradient id="radial-gradient-2" cx="176.01" cy="393.89" r="126.97" xlink:href="#Blueberry_Gradient"/><radialGradient id="radial-gradient-3" cx="123.11" cy="456.61" r="73.58" gradientUnits="userSpaceOnUse"><stop offset="0" stop-color="#267302"/><stop offset="0.51" stop-color="#3c8b02"/><stop offset="1" stop-color="#55a603"/></radialGradient><radialGradient id="radial-gradient-4" cx="399.12" cy="198.61" r="71.14" xlink:href="#radial-gradient"/><radialGradient id="Blueberry_Gradient-2" cx="392.92" cy="303.95" r="232.78" xlink:href="#Blueberry_Gradient"/></defs><g id="Right_blueberry" data-name="Right blueberry"><circle class="cls-1" cx="620.42" cy="393.89" r="126.97"/><path class="cls-2" d="M797.26,441.42c-5.92,5-18.73,15.24-29.94,20.21-11.85,5.18-23.81,10.16-36,15.13-7.4,3.07-16.19,4.34-25.92,3.91-9.95-.52-19-1.37-31-8.35l-1-.64c-.1,0-.1,0-.21-.1a56.64,56.64,0,0,1-11-8.79A62,62,0,0,1,653.68,447c-.43-1.17-.85-2.23-1.17-3.28-12.8-36.72-.63-60.63,6.88-86.56.64-2.43,2.33-14.07,5.19-18.41,1.16-1.69,4.12-1.37,5.6.64,5.61,7.4,17,23.38,22.44,35.66,5.82,13,11.53,26,17,39a55.56,55.56,0,0,1,2.12,5.93c21,.84,41.05,7,61.16,11.42,3,.64,16.61,2.22,22.64,4.87C797.9,437.4,798.74,440,797.26,441.42Z" transform="translate(-3 -117.47)"/></g><g id="Left_blueberry" data-name="Left blueberry"><circle class="cls-3" cx="176.01" cy="393.89" r="126.97"/><path class="cls-4" d="M148.53,443.54c-.42,1.16-.84,2.32-1.27,3.49a55,55,0,0,1-9.1,16.4,2.63,2.63,0,0,1-.52.63,59.32,59.32,0,0,1-9.53,7.3c-.53.32-1,.64-1.48,1-12,7-21.16,7.83-31,8.35s-18.52-.84-25.93-3.91c-12.16-5-24.12-9.95-36.08-15.13-11.21-5-23.91-15.24-29.84-20.21-1.58-1.38-.63-4,1.7-5.08,6-2.65,19.68-4.23,22.64-4.87,20.1-4.44,40.21-10.58,61.16-11.42a53.45,53.45,0,0,1,2.12-5.93c5.5-13,11.21-26,17-39,5.4-12.28,16.83-28.26,22.43-35.66,1.49-2,4.45-2.33,5.51-.64,2.85,4.34,4.65,16,5.29,18.41C149.17,383,161.34,406.92,148.53,443.54Z" transform="translate(-3 -117.47)"/></g><path class="cls-5" d="M420.08,223.55l-3.36,1.58a55,55,0,0,1-18,5.25,2.66,2.66,0,0,1-.82.08A59.85,59.85,0,0,1,386,229c-.6-.15-1.12-.22-1.72-.37-13.41-3.45-20.55-9.33-27.91-15.88s-12.56-13.63-15.66-21c-5.15-12.1-10.15-24-15-36.14-4.47-11.43-6.27-27.66-7-35.36-.16-2.09,2.38-3.3,4.78-2.42,6.14,2.37,17,10.85,19.51,12.48,17.41,11,36,20.78,51.49,34.92a57.86,57.86,0,0,1,5.68-2.72q19.6-8.07,39.58-15.75c12.47-4.93,31.83-8.24,41-9.55,2.47-.39,4.79,1.47,4.35,3.42-1,5.09-7.93,14.63-9.19,16.8C463.13,181,454.94,206.55,420.08,223.55Z" transform="translate(-3 -117.47)"/><circle class="cls-6" cx="392.92" cy="303.95" r="232.78"/><path class="cls-7" d="M248.13,374.36c7,1.64,11.65,6.57,11.65,14.15,0,10.79-9.23,16.58-21.27,16.58h-28V345h28.55c11.88,0,19.39,5.94,19.39,15.41,0,6.72-4.14,11.65-10.32,13.76ZM224.2,355.59v14.54h13.22c4,0,7.27-2.34,7.27-7.27s-3.29-7.27-7.27-7.27Zm14.47,38.94c4.06,0,7.35-2.34,7.35-7.35s-3.29-7.35-7.35-7.35H224.2v14.7Z" transform="translate(-3 -117.47)"/><path class="cls-7" d="M266.35,405.09V345h13v60.06Z" transform="translate(-3 -117.47)"/><path class="cls-7" d="M328.44,405.09h-12l-.24-5.79H316A14.44,14.44,0,0,1,303.33,406c-8.68,0-14.54-5.71-14.54-14.31V363.1h13v26.82c0,3.67,2.11,6.33,6.26,6.33,4.77,0,7.43-2.89,7.43-7.11v-26h13Z" transform="translate(-3 -117.47)"/><path class="cls-7" d="M375.83,398.52c-3.76,4.46-9.08,7.43-17.76,7.43-14.85,0-22.36-8.84-22.36-21.74,0-12.67,7.43-22,21.27-22,13.68,0,20.33,9,20.33,20.64a32,32,0,0,1-.31,4.93H348.69c.7,5.39,3.36,8.83,9.77,8.83a11.33,11.33,0,0,0,9.47-4.84Zm-11.11-18.45c-.47-5.24-2.5-8.53-7.82-8.53-5.08,0-7.66,3.29-8.21,8.53Z" transform="translate(-3 -117.47)"/><path class="cls-7" d="M396.31,399.22h-.15l-.32,5.87H384.43V345h13V368.8h.15a15.49,15.49,0,0,1,12.91-6.56c10.55,0,17.2,9.46,17.2,21.66S420.79,406,409.53,406A15.67,15.67,0,0,1,396.31,399.22Zm18.22-15.09c0-6.8-2.89-12.28-8.83-12.28-6.1,0-8.76,5.71-8.76,12.44s2.81,12,8.68,12C411.33,396.33,414.53,391.25,414.53,384.13Z" transform="translate(-3 -117.47)"/><path class="cls-7" d="M473,398.52C469.27,403,464,406,455.27,406c-14.85,0-22.36-8.84-22.36-21.74,0-12.67,7.43-22,21.27-22,13.68,0,20.33,9,20.33,20.64a32,32,0,0,1-.31,4.93H445.89c.7,5.39,3.36,8.83,9.78,8.83a11.32,11.32,0,0,0,9.46-4.84Zm-11.11-18.45c-.47-5.24-2.5-8.53-7.82-8.53-5.08,0-7.66,3.29-8.21,8.53Z" transform="translate(-3 -117.47)"/><path class="cls-7" d="M481.55,363.1h12l.31,6.64h.16c2.35-4.53,5.79-7.43,10.48-7.43a12.6,12.6,0,0,1,4,.71v10.79a27.09,27.09,0,0,0-4-.31c-6.49,0-10,3.91-10,8.52v23.07h-13Z" transform="translate(-3 -117.47)"/><path class="cls-7" d="M514.62,363.1h12l.31,6.64h.16c2.34-4.53,5.78-7.43,10.48-7.43a12.49,12.49,0,0,1,4,.71v10.79a26.94,26.94,0,0,0-4-.31c-6.5,0-10,3.91-10,8.52v23.07h-13Z" transform="translate(-3 -117.47)"/><path class="cls-7" d="M588.91,363.1l-16.58,44.49c-3,8.21-7.11,12.67-16.1,12.67a23.55,23.55,0,0,1-6.26-.86v-9a12.66,12.66,0,0,0,3.67.55c3.45,0,5.48-1.26,6.5-4.62L544,363.1h13.53L566.63,392h.15l9.15-28.85Z" transform="translate(-3 -117.47)"/><path class="cls-7" d="M250.44,438.87c12.12,0,22.05,7.12,22.05,19.86S262.79,479,250.2,479H236.91v19.94H223.14V438.87Zm-1.33,29.48c5.16,0,9.46-2.89,9.46-9.38s-4.3-9.46-9.46-9.46h-12.2v18.84Z" transform="translate(-3 -117.47)"/><path class="cls-7" d="M278.82,438.87h13.29v10.95H278.82Zm.16,60.06v-42h13v42Z" transform="translate(-3 -117.47)"/><path class="cls-7" d="M319.09,491.26l7.27-8.91a26,26,0,0,0,17.83,7c7,0,10.48-2.66,10.48-7,0-4.77-4.85-5.94-13.6-7.9-10.17-2.34-19.71-6.17-19.71-18,0-10.33,8-18.38,23-18.38,10,0,17.13,3.05,22.76,7.66l-6.42,9.15a25.63,25.63,0,0,0-16.5-6.33c-6.1,0-9.15,3-9.15,6.65,0,4.61,4.46,5.63,13.14,7.58,10.64,2.43,20.18,6,20.18,18.22,0,11-8.6,18.85-24.4,18.85C332.78,499.79,325.11,496.58,319.09,491.26Z" transform="translate(-3 -117.47)"/><path class="cls-7" d="M412.7,492.36c-3.76,4.46-9.08,7.43-17.76,7.43-14.85,0-22.36-8.84-22.36-21.74,0-12.67,7.43-22,21.27-22,13.69,0,20.33,9,20.33,20.65a32,32,0,0,1-.31,4.93H385.56c.7,5.39,3.36,8.83,9.78,8.83a11.31,11.31,0,0,0,9.46-4.85ZM401.59,473.9c-.47-5.23-2.5-8.52-7.82-8.52-5.08,0-7.66,3.29-8.21,8.52Z" transform="translate(-3 -117.47)"/><path class="cls-7" d="M421.22,456.93h12l.31,6.65h.16c2.35-4.53,5.79-7.43,10.48-7.43a12.6,12.6,0,0,1,4,.71v10.79a26.94,26.94,0,0,0-4-.32c-6.49,0-10,3.92-10,8.53v23.07h-13Z" transform="translate(-3 -117.47)"/><path class="cls-7" d="M495.51,456.93l-15.64,42H466.18l-15.64-42h13.53l9.15,28.94h.16l9.14-28.94Z" transform="translate(-3 -117.47)"/><path class="cls-7" d="M537.11,492.36c-3.75,4.46-9.07,7.43-17.75,7.43C504.5,499.79,497,491,497,478.05c0-12.67,7.43-22,21.27-22s20.33,9,20.33,20.65a30.76,30.76,0,0,1-.31,4.93H510c.71,5.39,3.37,8.83,9.78,8.83a11.3,11.3,0,0,0,9.46-4.85ZM526,473.9c-.46-5.23-2.5-8.52-7.82-8.52-5.08,0-7.66,3.29-8.21,8.52Z" transform="translate(-3 -117.47)"/><path class="cls-7" d="M545.63,456.93h12l.32,6.65h.15c2.35-4.53,5.79-7.43,10.48-7.43a12.5,12.5,0,0,1,4,.71v10.79a26.94,26.94,0,0,0-4-.32c-6.49,0-10,3.92-10,8.53v23.07h-13Z" transform="translate(-3 -117.47)"/></svg>